<svg width="147" height="43" viewBox="0 0 147 43" fill="none" xmlns="http://www.w3.org/2000/svg">
<rect y="3" width="66" height="38" rx="10" fill="white"/>
<path d="M7.1 32V10.4H10.76L20.78 25.625V10.4H24.44V32H20.78L10.76 16.775V32H7.1ZM30.7632 39.2L33.8832 30.635L33.9432 33.155L26.8782 15.8H30.6432L35.6532 28.64H34.6932L39.5682 15.8H43.1832L34.1532 39.2H30.7632ZM43.6203 32L49.5453 23.81L43.7403 15.8H48.0003L51.6453 20.975L55.2303 15.8H59.4903L53.6853 23.81L59.6403 32H55.3803L51.6453 26.645L47.8803 32H43.6203Z" fill="black"/>
<path d="M78.6034 32L72.2884 10.4H76.0834L80.3884 26L84.6784 10.43L88.4734 10.4L92.7784 26L97.0684 10.4H100.863L94.5634 32H90.9934L86.5684 16.64L82.1734 32H78.6034ZM108.889 32.45C107.249 32.45 105.809 32.095 104.569 31.385C103.329 30.675 102.359 29.69 101.659 28.43C100.969 27.17 100.624 25.72 100.624 24.08C100.624 22.31 100.964 20.775 101.644 19.475C102.324 18.165 103.269 17.15 104.479 16.43C105.689 15.71 107.089 15.35 108.679 15.35C110.359 15.35 111.784 15.745 112.954 16.535C114.134 17.315 115.009 18.42 115.579 19.85C116.149 21.28 116.364 22.965 116.224 24.905H112.639V23.585C112.629 21.825 112.319 20.54 111.709 19.73C111.099 18.92 110.139 18.515 108.829 18.515C107.349 18.515 106.249 18.975 105.529 19.895C104.809 20.805 104.449 22.14 104.449 23.9C104.449 25.54 104.809 26.81 105.529 27.71C106.249 28.61 107.299 29.06 108.679 29.06C109.569 29.06 110.334 28.865 110.974 28.475C111.624 28.075 112.124 27.5 112.474 26.75L116.044 27.83C115.424 29.29 114.464 30.425 113.164 31.235C111.874 32.045 110.449 32.45 108.889 32.45ZM103.309 24.905V22.175H114.454V24.905H103.309ZM127.356 32.45C125.776 32.45 124.451 32.075 123.381 31.325C122.311 30.575 121.506 29.555 120.966 28.265C120.426 26.965 120.156 25.51 120.156 23.9C120.156 22.27 120.426 20.81 120.966 19.52C121.506 18.23 122.296 17.215 123.336 16.475C124.386 15.725 125.681 15.35 127.221 15.35C128.751 15.35 130.076 15.725 131.196 16.475C132.326 17.215 133.201 18.23 133.821 19.52C134.441 20.8 134.751 22.26 134.751 23.9C134.751 25.52 134.446 26.975 133.836 28.265C133.226 29.555 132.366 30.575 131.256 31.325C130.146 32.075 128.846 32.45 127.356 32.45ZM119.541 32V10.4H123.186V20.63H122.736V32H119.541ZM126.801 29.21C127.741 29.21 128.516 28.975 129.126 28.505C129.736 28.035 130.186 27.4 130.476 26.6C130.776 25.79 130.926 24.89 130.926 23.9C130.926 22.92 130.776 22.03 130.476 21.23C130.176 20.42 129.711 19.78 129.081 19.31C128.451 18.83 127.651 18.59 126.681 18.59C125.761 18.59 125.011 18.815 124.431 19.265C123.851 19.705 123.421 20.325 123.141 21.125C122.871 21.915 122.736 22.84 122.736 23.9C122.736 24.95 122.871 25.875 123.141 26.675C123.421 27.475 123.856 28.1 124.446 28.55C125.046 28.99 125.831 29.21 126.801 29.21Z" fill="white"/>
</svg>
